<svg width="64" height="64" viewBox="0 0 64 64" fill="none" xmlns="http://www.w3.org/2000/svg">
<path d="M0 16C0 7.16344 7.16344 0 16 0H48C56.8366 0 64 7.16344 64 16V48C64 56.8366 56.8366 64 48 64H16C7.16344 64 0 56.8366 0 48V16Z" fill="white" fill-opacity="0.1"/>
<path d="M37.3333 44V41.3333C37.3333 39.9188 36.7714 38.5623 35.7712 37.5621C34.771 36.5619 33.4145 36 32 36H24C22.5855 36 21.229 36.5619 20.2288 37.5621C19.2286 38.5623 18.6667 39.9188 18.6667 41.3333V44" stroke="white" stroke-width="2.66667" stroke-linecap="round" stroke-linejoin="round"/>
<path d="M37.3333 20.1707C38.477 20.4671 39.4899 21.135 40.2129 22.0694C40.9359 23.0038 41.3283 24.1518 41.3283 25.3333C41.3283 26.5148 40.9359 27.6628 40.2129 28.5972C39.4899 29.5316 38.477 30.1995 37.3333 30.496" stroke="white" stroke-width="2.66667" stroke-linecap="round" stroke-linejoin="round"/>
<path d="M45.3333 43.9998V41.3331C45.3324 40.1514 44.9391 39.0035 44.2151 38.0695C43.4912 37.1356 42.4775 36.4685 41.3333 36.1731" stroke="white" stroke-width="2.66667" stroke-linecap="round" stroke-linejoin="round"/>
<path d="M28 30.6667C30.9455 30.6667 33.3333 28.2789 33.3333 25.3333C33.3333 22.3878 30.9455 20 28 20C25.0545 20 22.6667 22.3878 22.6667 25.3333C22.6667 28.2789 25.0545 30.6667 28 30.6667Z" stroke="white" stroke-width="2.66667" stroke-linecap="round" stroke-linejoin="round"/>
</svg>
