<svg width="80" height="80" viewBox="0 0 80 80" fill="none" xmlns="http://www.w3.org/2000/svg">
<mask id="path-1-inside-1_1_259" fill="white">
<path d="M0 16C0 7.16344 7.16344 0 16 0H64C72.8366 0 80 7.16344 80 16V64C80 72.8366 72.8366 80 64 80H16C7.16344 80 0 72.8366 0 64V16Z"/>
</mask>
<path d="M0 16C0 7.16344 7.16344 0 16 0H64C72.8366 0 80 7.16344 80 16V64C80 72.8366 72.8366 80 64 80H16C7.16344 80 0 72.8366 0 64V16Z" fill="url(#paint0_linear_1_259)"/>
<path d="M16 0V2H64V0V-2H16V0ZM80 16H78V64H80H82V16H80ZM64 80V78H16V80V82H64V80ZM0 64H2V16H0H-2V64H0ZM16 80V78C8.26801 78 2 71.732 2 64H0H-2C-2 73.9411 6.05887 82 16 82V80ZM80 64H78C78 71.732 71.732 78 64 78V80V82C73.9411 82 82 73.9411 82 64H80ZM64 0V2C71.732 2 78 8.26801 78 16H80H82C82 6.05888 73.9411 -2 64 -2V0ZM16 0V-2C6.05888 -2 -2 6.05887 -2 16H0H2C2 8.26801 8.26801 2 16 2V0Z" fill="#DBEAFE" mask="url(#path-1-inside-1_1_259)"/>
<path d="M53.3333 41.6666C53.3333 49.9999 47.5 54.1666 40.5667 56.5833C40.2036 56.7063 39.8092 56.7004 39.45 56.5666C32.5 54.1666 26.6667 49.9999 26.6667 41.6666V29.9999C26.6667 29.5579 26.8423 29.134 27.1548 28.8214C27.4674 28.5089 27.8913 28.3333 28.3333 28.3333C31.6667 28.3333 35.8333 26.3333 38.7333 23.7999C39.0864 23.4983 39.5356 23.3325 40 23.3325C40.4644 23.3325 40.9136 23.4983 41.2667 23.7999C44.1833 26.3499 48.3333 28.3333 51.6667 28.3333C52.1087 28.3333 52.5326 28.5089 52.8452 28.8214C53.1577 29.134 53.3333 29.5579 53.3333 29.9999V41.6666Z" stroke="#2563EB" stroke-width="3.33333" stroke-linecap="round" stroke-linejoin="round"/>
<defs>
<linearGradient id="paint0_linear_1_259" x1="0" y1="0" x2="80" y2="80" gradientUnits="userSpaceOnUse">
<stop stop-color="#EFF6FF"/>
<stop offset="1" stop-color="#EEF2FF"/>
</linearGradient>
</defs>
</svg>
