<svg width="80" height="80" viewBox="0 0 80 80" fill="none" xmlns="http://www.w3.org/2000/svg">
<mask id="path-1-inside-1_1_276" fill="white">
<path d="M0 16C0 7.16344 7.16344 0 16 0H64C72.8366 0 80 7.16344 80 16V64C80 72.8366 72.8366 80 64 80H16C7.16344 80 0 72.8366 0 64V16Z"/>
</mask>
<path d="M0 16C0 7.16344 7.16344 0 16 0H64C72.8366 0 80 7.16344 80 16V64C80 72.8366 72.8366 80 64 80H16C7.16344 80 0 72.8366 0 64V16Z" fill="url(#paint0_linear_1_276)"/>
<path d="M16 0V2H64V0V-2H16V0ZM80 16H78V64H80H82V16H80ZM64 80V78H16V80V82H64V80ZM0 64H2V16H0H-2V64H0ZM16 80V78C8.26801 78 2 71.732 2 64H0H-2C-2 73.9411 6.05887 82 16 82V80ZM80 64H78C78 71.732 71.732 78 64 78V80V82C73.9411 82 82 73.9411 82 64H80ZM64 0V2C71.732 2 78 8.26801 78 16H80H82C82 6.05888 73.9411 -2 64 -2V0ZM16 0V-2C6.05888 -2 -2 6.05887 -2 16H0H2C2 8.26801 8.26801 2 16 2V0Z" fill="#DBEAFE" mask="url(#path-1-inside-1_1_276)"/>
<path d="M23.3334 35.8335C23.3334 33.9788 23.896 32.1678 24.9469 30.6396C25.9978 29.1114 27.4876 27.9379 29.2194 27.2741C30.9512 26.6104 32.8436 26.4876 34.6467 26.9219C36.4498 27.3562 38.0787 28.3273 39.3184 29.7068C39.4057 29.8002 39.5112 29.8746 39.6285 29.9255C39.7458 29.9764 39.8722 30.0026 40 30.0026C40.1279 30.0026 40.2543 29.9764 40.3716 29.9255C40.4888 29.8746 40.5944 29.8002 40.6817 29.7068C41.9174 28.3183 43.5467 27.3391 45.3528 26.8995C47.1588 26.4599 49.0559 26.5807 50.7915 27.246C52.5271 27.9112 54.019 29.0892 55.0686 30.6233C56.1181 32.1574 56.6756 33.9747 56.6667 35.8335C56.6667 39.6501 54.1667 42.5001 51.6667 45.0001L42.5134 53.8551C42.2028 54.2118 41.8199 54.4983 41.3901 54.6957C40.9603 54.893 40.4934 54.9966 40.0205 54.9996C39.5476 55.0026 39.0795 54.9049 38.6472 54.713C38.2149 54.5212 37.8284 54.2395 37.5134 53.8868L28.3334 45.0001C25.8334 42.5001 23.3334 39.6668 23.3334 35.8335Z" stroke="#2563EB" stroke-width="3.33333" stroke-linecap="round" stroke-linejoin="round"/>
<defs>
<linearGradient id="paint0_linear_1_276" x1="0" y1="0" x2="80" y2="80" gradientUnits="userSpaceOnUse">
<stop stop-color="#EFF6FF"/>
<stop offset="1" stop-color="#EEF2FF"/>
</linearGradient>
</defs>
</svg>
