<svg width="80" height="80" viewBox="0 0 80 80" fill="none" xmlns="http://www.w3.org/2000/svg">
<g filter="url(#filter0_dd_1_107)">
<path d="M12 10C12 5.58172 15.5817 2 20 2H60C64.4183 2 68 5.58172 68 10V50C68 54.4183 64.4183 58 60 58H20C15.5817 58 12 54.4183 12 50V10Z" fill="url(#paint0_linear_1_107)" shape-rendering="crispEdges"/>
<path d="M44.6667 40.5V38.1667C44.6667 36.929 44.175 35.742 43.2998 34.8668C42.4247 33.9917 41.2377 33.5 40 33.5H33C31.7623 33.5 30.5753 33.9917 29.7002 34.8668C28.825 35.742 28.3333 36.929 28.3333 38.1667V40.5" stroke="white" stroke-width="2.33333" stroke-linecap="round" stroke-linejoin="round"/>
<path d="M44.6667 19.6494C45.6674 19.9088 46.5536 20.4932 47.1863 21.3108C47.819 22.1284 48.1622 23.133 48.1622 24.1667C48.1622 25.2005 47.819 26.2051 47.1863 27.0227C46.5536 27.8403 45.6674 28.4246 44.6667 28.6841" stroke="white" stroke-width="2.33333" stroke-linecap="round" stroke-linejoin="round"/>
<path d="M51.6667 40.4999V38.1666C51.6659 37.1326 51.3218 36.1282 50.6883 35.311C50.0548 34.4938 49.1678 33.9101 48.1667 33.6516" stroke="white" stroke-width="2.33333" stroke-linecap="round" stroke-linejoin="round"/>
<path d="M36.5 28.8333C39.0773 28.8333 41.1667 26.744 41.1667 24.1667C41.1667 21.5893 39.0773 19.5 36.5 19.5C33.9227 19.5 31.8333 21.5893 31.8333 24.1667C31.8333 26.744 33.9227 28.8333 36.5 28.8333Z" stroke="white" stroke-width="2.33333" stroke-linecap="round" stroke-linejoin="round"/>
</g>
<defs>
<filter id="filter0_dd_1_107" x="0" y="0" width="80" height="80" filterUnits="userSpaceOnUse" color-interpolation-filters="sRGB">
<feFlood flood-opacity="0" result="BackgroundImageFix"/>
<feColorMatrix in="SourceAlpha" type="matrix" values="0 0 0 0 0 0 0 0 0 0 0 0 0 0 0 0 0 0 127 0" result="hardAlpha"/>
<feMorphology radius="4" operator="erode" in="SourceAlpha" result="effect1_dropShadow_1_107"/>
<feOffset dy="4"/>
<feGaussianBlur stdDeviation="3"/>
<feComposite in2="hardAlpha" operator="out"/>
<feColorMatrix type="matrix" values="0 0 0 0 0 0 0 0 0 0 0 0 0 0 0 0 0 0 0.1 0"/>
<feBlend mode="normal" in2="BackgroundImageFix" result="effect1_dropShadow_1_107"/>
<feColorMatrix in="SourceAlpha" type="matrix" values="0 0 0 0 0 0 0 0 0 0 0 0 0 0 0 0 0 0 127 0" result="hardAlpha"/>
<feMorphology radius="3" operator="erode" in="SourceAlpha" result="effect2_dropShadow_1_107"/>
<feOffset dy="10"/>
<feGaussianBlur stdDeviation="7.5"/>
<feComposite in2="hardAlpha" operator="out"/>
<feColorMatrix type="matrix" values="0 0 0 0 0 0 0 0 0 0 0 0 0 0 0 0 0 0 0.1 0"/>
<feBlend mode="normal" in2="effect1_dropShadow_1_107" result="effect2_dropShadow_1_107"/>
<feBlend mode="normal" in="SourceGraphic" in2="effect2_dropShadow_1_107" result="shape"/>
</filter>
<linearGradient id="paint0_linear_1_107" x1="40" y1="2" x2="40" y2="58" gradientUnits="userSpaceOnUse">
<stop stop-color="#2563EB"/>
<stop offset="1" stop-color="#1D4ED8"/>
</linearGradient>
</defs>
</svg>
