<svg width="80" height="80" viewBox="0 0 80 80" fill="none" xmlns="http://www.w3.org/2000/svg">
<mask id="path-1-inside-1_1_251" fill="white">
<path d="M0 16C0 7.16344 7.16344 0 16 0H64C72.8366 0 80 7.16344 80 16V64C80 72.8366 72.8366 80 64 80H16C7.16344 80 0 72.8366 0 64V16Z"/>
</mask>
<path d="M0 16C0 7.16344 7.16344 0 16 0H64C72.8366 0 80 7.16344 80 16V64C80 72.8366 72.8366 80 64 80H16C7.16344 80 0 72.8366 0 64V16Z" fill="url(#paint0_linear_1_251)"/>
<path d="M16 0V2H64V0V-2H16V0ZM80 16H78V64H80H82V16H80ZM64 80V78H16V80V82H64V80ZM0 64H2V16H0H-2V64H0ZM16 80V78C8.26801 78 2 71.732 2 64H0H-2C-2 73.9411 6.05887 82 16 82V80ZM80 64H78C78 71.732 71.732 78 64 78V80V82C73.9411 82 82 73.9411 82 64H80ZM64 0V2C71.732 2 78 8.26801 78 16H80H82C82 6.05888 73.9411 -2 64 -2V0ZM16 0V-2C6.05888 -2 -2 6.05887 -2 16H0H2C2 8.26801 8.26801 2 16 2V0Z" fill="#DBEAFE" mask="url(#path-1-inside-1_1_251)"/>
<path d="M26.6667 43.3332C26.3513 43.3343 26.0421 43.2458 25.7749 43.0782C25.5078 42.9105 25.2937 42.6705 25.1576 42.386C25.0215 42.1015 24.9688 41.7842 25.0058 41.471C25.0429 41.1577 25.168 40.8615 25.3667 40.6165L41.8667 23.6165C41.9904 23.4737 42.1591 23.3771 42.345 23.3428C42.5308 23.3084 42.7229 23.3382 42.8896 23.4274C43.0562 23.5165 43.1876 23.6597 43.2622 23.8334C43.3368 24.0071 43.3501 24.2009 43.3 24.3832L40.1 34.4165C40.0056 34.6691 39.974 34.9407 40.0077 35.2082C40.0414 35.4757 40.1394 35.731 40.2935 35.9522C40.4475 36.1735 40.653 36.3541 40.8921 36.4785C41.1313 36.6029 41.3971 36.6674 41.6667 36.6665H53.3333C53.6487 36.6655 53.958 36.7539 54.2251 36.9216C54.4922 37.0892 54.7063 37.3293 54.8424 37.6138C54.9786 37.8983 55.0312 38.2156 54.9942 38.5288C54.9572 38.842 54.832 39.1383 54.6333 39.3832L38.1333 56.3832C38.0096 56.5261 37.8409 56.6226 37.655 56.657C37.4692 56.6913 37.2771 56.6615 37.1105 56.5724C36.9438 56.4832 36.8124 56.34 36.7378 56.1663C36.6632 55.9927 36.6499 55.7988 36.7 55.6165L39.9 45.5832C39.9944 45.3307 40.0261 45.059 39.9924 44.7915C39.9587 44.524 39.8606 44.2687 39.7065 44.0475C39.5525 43.8262 39.3471 43.6457 39.1079 43.5213C38.8687 43.3969 38.6029 43.3323 38.3333 43.3332H26.6667Z" stroke="#2563EB" stroke-width="3.33333" stroke-linecap="round" stroke-linejoin="round"/>
<defs>
<linearGradient id="paint0_linear_1_251" x1="0" y1="0" x2="80" y2="80" gradientUnits="userSpaceOnUse">
<stop stop-color="#EFF6FF"/>
<stop offset="1" stop-color="#EEF2FF"/>
</linearGradient>
</defs>
</svg>
