<svg width="80" height="80" viewBox="0 0 80 80" fill="none" xmlns="http://www.w3.org/2000/svg">
<mask id="path-1-inside-1_1_267" fill="white">
<path d="M0 16C0 7.16344 7.16344 0 16 0H64C72.8366 0 80 7.16344 80 16V64C80 72.8366 72.8366 80 64 80H16C7.16344 80 0 72.8366 0 64V16Z"/>
</mask>
<path d="M0 16C0 7.16344 7.16344 0 16 0H64C72.8366 0 80 7.16344 80 16V64C80 72.8366 72.8366 80 64 80H16C7.16344 80 0 72.8366 0 64V16Z" fill="url(#paint0_linear_1_267)"/>
<path d="M16 0V2H64V0V-2H16V0ZM80 16H78V64H80H82V16H80ZM64 80V78H16V80V82H64V80ZM0 64H2V16H0H-2V64H0ZM16 80V78C8.26801 78 2 71.732 2 64H0H-2C-2 73.9411 6.05887 82 16 82V80ZM80 64H78C78 71.732 71.732 78 64 78V80V82C73.9411 82 82 73.9411 82 64H80ZM64 0V2C71.732 2 78 8.26801 78 16H80H82C82 6.05888 73.9411 -2 64 -2V0ZM16 0V-2C6.05888 -2 -2 6.05887 -2 16H0H2C2 8.26801 8.26801 2 16 2V0Z" fill="#DBEAFE" mask="url(#path-1-inside-1_1_267)"/>
<path d="M45.795 41.4832L48.32 55.6932C48.3483 55.8605 48.3248 56.0325 48.2527 56.1861C48.1806 56.3397 48.0633 56.4676 47.9166 56.5528C47.7698 56.638 47.6005 56.6763 47.4314 56.6627C47.2622 56.649 47.1012 56.5841 46.97 56.4765L41.0033 51.9982C40.7153 51.783 40.3654 51.6667 40.0058 51.6667C39.6463 51.6667 39.2964 51.783 39.0083 51.9982L33.0317 56.4748C32.9005 56.5822 32.7398 56.6471 32.5708 56.6607C32.4019 56.6744 32.2328 56.6362 32.0861 56.5513C31.9394 56.4663 31.8221 56.3387 31.7499 56.1854C31.6776 56.0321 31.6538 55.8603 31.6817 55.6932L34.205 41.4832" stroke="#2563EB" stroke-width="3.33333" stroke-linecap="round" stroke-linejoin="round"/>
<path d="M40 43.3333C45.5228 43.3333 50 38.8561 50 33.3333C50 27.8104 45.5228 23.3333 40 23.3333C34.4772 23.3333 30 27.8104 30 33.3333C30 38.8561 34.4772 43.3333 40 43.3333Z" stroke="#2563EB" stroke-width="3.33333" stroke-linecap="round" stroke-linejoin="round"/>
<defs>
<linearGradient id="paint0_linear_1_267" x1="0" y1="0" x2="80" y2="80" gradientUnits="userSpaceOnUse">
<stop stop-color="#EFF6FF"/>
<stop offset="1" stop-color="#EEF2FF"/>
</linearGradient>
</defs>
</svg>
