<svg width="64" height="64" viewBox="0 0 64 64" fill="none" xmlns="http://www.w3.org/2000/svg">
<path d="M0 16C0 7.16344 7.16344 0 16 0H48C56.8366 0 64 7.16344 64 16V48C64 56.8366 56.8366 64 48 64H16C7.16344 64 0 56.8366 0 48V16Z" fill="white" fill-opacity="0.1"/>
<path d="M32 24V32L37.3333 34.6667" stroke="white" stroke-width="2.66667" stroke-linecap="round" stroke-linejoin="round"/>
<path d="M32 45.3334C39.3638 45.3334 45.3333 39.3639 45.3333 32.0001C45.3333 24.6363 39.3638 18.6667 32 18.6667C24.6362 18.6667 18.6666 24.6363 18.6666 32.0001C18.6666 39.3639 24.6362 45.3334 32 45.3334Z" stroke="white" stroke-width="2.66667" stroke-linecap="round" stroke-linejoin="round"/>
</svg>
