<svg width="80" height="80" viewBox="0 0 80 80" fill="none" xmlns="http://www.w3.org/2000/svg">
<g filter="url(#filter0_dd_1_174)">
<path d="M12 10C12 5.58172 15.5817 2 20 2H60C64.4183 2 68 5.58172 68 10V50C68 54.4183 64.4183 58 60 58H20C15.5817 58 12 54.4183 12 50V10Z" fill="url(#paint0_linear_1_174)" shape-rendering="crispEdges"/>
<path d="M33 41.6667C32.3812 41.6667 31.7877 41.4209 31.3501 40.9833C30.9125 40.5457 30.6667 39.9522 30.6667 39.3334V20.6667C30.6667 20.0479 30.9125 19.4544 31.3501 19.0168C31.7877 18.5792 32.3812 18.3334 33 18.3334H42.3334C42.7027 18.3328 43.0685 18.4052 43.4096 18.5466C43.7508 18.688 44.0607 18.8954 44.3214 19.157L48.5074 23.343C48.7697 23.6038 48.9777 23.9139 49.1195 24.2556C49.2613 24.5972 49.334 24.9635 49.3334 25.3334V39.3334C49.3334 39.9522 49.0875 40.5457 48.6499 40.9833C48.2124 41.4209 47.6189 41.6667 47 41.6667H33Z" stroke="white" stroke-width="2.33333" stroke-linecap="round" stroke-linejoin="round"/>
<path d="M42.3333 18.3334V24.1667C42.3333 24.4761 42.4562 24.7729 42.675 24.9917C42.8938 25.2105 43.1906 25.3334 43.5 25.3334H49.3333" stroke="white" stroke-width="2.33333" stroke-linecap="round" stroke-linejoin="round"/>
<path d="M37.6666 26.5H35.3333" stroke="white" stroke-width="2.33333" stroke-linecap="round" stroke-linejoin="round"/>
<path d="M44.6666 31.1666H35.3333" stroke="white" stroke-width="2.33333" stroke-linecap="round" stroke-linejoin="round"/>
<path d="M44.6666 35.8334H35.3333" stroke="white" stroke-width="2.33333" stroke-linecap="round" stroke-linejoin="round"/>
</g>
<defs>
<filter id="filter0_dd_1_174" x="0" y="0" width="80" height="80" filterUnits="userSpaceOnUse" color-interpolation-filters="sRGB">
<feFlood flood-opacity="0" result="BackgroundImageFix"/>
<feColorMatrix in="SourceAlpha" type="matrix" values="0 0 0 0 0 0 0 0 0 0 0 0 0 0 0 0 0 0 127 0" result="hardAlpha"/>
<feMorphology radius="4" operator="erode" in="SourceAlpha" result="effect1_dropShadow_1_174"/>
<feOffset dy="4"/>
<feGaussianBlur stdDeviation="3"/>
<feComposite in2="hardAlpha" operator="out"/>
<feColorMatrix type="matrix" values="0 0 0 0 0 0 0 0 0 0 0 0 0 0 0 0 0 0 0.1 0"/>
<feBlend mode="normal" in2="BackgroundImageFix" result="effect1_dropShadow_1_174"/>
<feColorMatrix in="SourceAlpha" type="matrix" values="0 0 0 0 0 0 0 0 0 0 0 0 0 0 0 0 0 0 127 0" result="hardAlpha"/>
<feMorphology radius="3" operator="erode" in="SourceAlpha" result="effect2_dropShadow_1_174"/>
<feOffset dy="10"/>
<feGaussianBlur stdDeviation="7.5"/>
<feComposite in2="hardAlpha" operator="out"/>
<feColorMatrix type="matrix" values="0 0 0 0 0 0 0 0 0 0 0 0 0 0 0 0 0 0 0.1 0"/>
<feBlend mode="normal" in2="effect1_dropShadow_1_174" result="effect2_dropShadow_1_174"/>
<feBlend mode="normal" in="SourceGraphic" in2="effect2_dropShadow_1_174" result="shape"/>
</filter>
<linearGradient id="paint0_linear_1_174" x1="40" y1="2" x2="40" y2="58" gradientUnits="userSpaceOnUse">
<stop stop-color="#2563EB"/>
<stop offset="1" stop-color="#1D4ED8"/>
</linearGradient>
</defs>
</svg>
