<svg width="64" height="64" viewBox="0 0 64 64" fill="none" xmlns="http://www.w3.org/2000/svg">
<path d="M0 16C0 7.16344 7.16344 0 16 0H48C56.8366 0 64 7.16344 64 16V48C64 56.8366 56.8366 64 48 64H16C7.16344 64 0 56.8366 0 48V16Z" fill="white" fill-opacity="0.1"/>
<path d="M37.3333 30.6667L40 33.3333L45.3333 28" stroke="white" stroke-width="2.66667" stroke-linecap="round" stroke-linejoin="round"/>
<path d="M37.3334 44V41.3333C37.3334 39.9188 36.7714 38.5623 35.7713 37.5621C34.7711 36.5619 33.4145 36 32 36H24C22.5855 36 21.229 36.5619 20.2288 37.5621C19.2286 38.5623 18.6667 39.9188 18.6667 41.3333V44" stroke="white" stroke-width="2.66667" stroke-linecap="round" stroke-linejoin="round"/>
<path d="M28 30.6667C30.9455 30.6667 33.3334 28.2789 33.3334 25.3333C33.3334 22.3878 30.9455 20 28 20C25.0545 20 22.6667 22.3878 22.6667 25.3333C22.6667 28.2789 25.0545 30.6667 28 30.6667Z" stroke="white" stroke-width="2.66667" stroke-linecap="round" stroke-linejoin="round"/>
</svg>
