<svg width="224" height="32" viewBox="0 0 224 32" fill="none" xmlns="http://www.w3.org/2000/svg">
<path d="M0 16C0 7.16344 7.16344 0 16 0C24.8366 0 32 7.16344 32 16C32 24.8366 24.8366 32 16 32C7.16344 32 0 24.8366 0 16Z" fill="white" fill-opacity="0.1"/>
<g clip-path="url(#clip0_1_380)">
<path d="M20 9.33325H18C17.1159 9.33325 16.2681 9.68444 15.6429 10.3096C15.0178 10.9347 14.6666 11.7825 14.6666 12.6666V14.6666H12.6666V17.3333H14.6666V22.6666H17.3333V17.3333H19.3333L20 14.6666H17.3333V12.6666C17.3333 12.4898 17.4035 12.3202 17.5286 12.1952C17.6536 12.0702 17.8231 11.9999 18 11.9999H20V9.33325Z" stroke="white" stroke-width="1.33333" stroke-linecap="round" stroke-linejoin="round"/>
</g>
<path d="M48 16C48 7.16344 55.1634 0 64 0C72.8366 0 80 7.16344 80 16C80 24.8366 72.8366 32 64 32C55.1634 32 48 24.8366 48 16Z" fill="white" fill-opacity="0.1"/>
<path d="M70.6667 10.6666C70.6667 10.6666 70.2 12.0666 69.3334 12.9333C70.4 19.5999 63.0667 24.4666 57.3334 20.6666C58.8 20.7333 60.2667 20.2666 61.3334 19.3333C58 18.3333 56.3334 14.3999 58 11.3333C59.4667 13.0666 61.7334 14.0666 64 13.9999C63.4 11.1999 66.6667 9.59993 68.6667 11.4666C69.4 11.4666 70.6667 10.6666 70.6667 10.6666Z" stroke="white" stroke-width="1.33333" stroke-linecap="round" stroke-linejoin="round"/>
<path d="M96 16C96 7.16344 103.163 0 112 0C120.837 0 128 7.16344 128 16C128 24.8366 120.837 32 112 32C103.163 32 96 24.8366 96 16Z" fill="white" fill-opacity="0.1"/>
<path d="M105.667 19.3333C105.201 17.1355 105.201 14.8645 105.667 12.6667C105.728 12.4435 105.846 12.24 106.01 12.0764C106.173 11.9128 106.377 11.7945 106.6 11.7333C110.176 11.141 113.824 11.141 117.4 11.7333C117.623 11.7945 117.827 11.9128 117.99 12.0764C118.154 12.24 118.272 12.4435 118.333 12.6667C118.799 14.8645 118.799 17.1355 118.333 19.3333C118.272 19.5565 118.154 19.7599 117.99 19.9236C117.827 20.0872 117.623 20.2055 117.4 20.2667C113.824 20.8591 110.176 20.8591 106.6 20.2667C106.377 20.2055 106.173 20.0872 106.01 19.9236C105.846 19.7599 105.728 19.5565 105.667 19.3333Z" stroke="white" stroke-width="1.33333" stroke-linecap="round" stroke-linejoin="round"/>
<path d="M110.667 18L114 16L110.667 14V18Z" stroke="white" stroke-width="1.33333" stroke-linecap="round" stroke-linejoin="round"/>
<path d="M144 16C144 7.16344 151.163 0 160 0C168.837 0 176 7.16344 176 16C176 24.8366 168.837 32 160 32C151.163 32 144 24.8366 144 16Z" fill="white" fill-opacity="0.1"/>
<g clip-path="url(#clip1_1_380)">
<path d="M163.333 9.33325H156.667C154.826 9.33325 153.333 10.8256 153.333 12.6666V19.3333C153.333 21.1742 154.826 22.6666 156.667 22.6666H163.333C165.174 22.6666 166.667 21.1742 166.667 19.3333V12.6666C166.667 10.8256 165.174 9.33325 163.333 9.33325Z" stroke="white" stroke-width="1.33333" stroke-linecap="round" stroke-linejoin="round"/>
<path d="M162.667 15.58C162.749 16.1348 162.654 16.7014 162.396 17.1993C162.138 17.6972 161.729 18.1009 161.228 18.3531C160.727 18.6052 160.159 18.693 159.605 18.6039C159.051 18.5148 158.54 18.2533 158.143 17.8567C157.747 17.4601 157.485 16.9485 157.396 16.3948C157.307 15.841 157.395 15.2732 157.647 14.7722C157.899 14.2712 158.303 13.8625 158.801 13.6041C159.299 13.3458 159.865 13.251 160.42 13.3333C160.986 13.4172 161.51 13.6809 161.914 14.0855C162.319 14.4901 162.583 15.014 162.667 15.58Z" stroke="white" stroke-width="1.33333" stroke-linecap="round" stroke-linejoin="round"/>
<path d="M163.667 12.3333H163.673" stroke="white" stroke-width="1.33333" stroke-linecap="round" stroke-linejoin="round"/>
</g>
<path d="M192 16C192 7.16344 199.163 0 208 0C216.837 0 224 7.16344 224 16C224 24.8366 216.837 32 208 32C199.163 32 192 24.8366 192 16Z" fill="white" fill-opacity="0.1"/>
<path d="M210.667 13.3333C211.727 13.3333 212.745 13.7547 213.495 14.5048C214.245 15.255 214.667 16.2724 214.667 17.3333V21.9999H212V17.3333C212 16.9796 211.859 16.6405 211.609 16.3904C211.359 16.1404 211.02 15.9999 210.667 15.9999C210.313 15.9999 209.974 16.1404 209.724 16.3904C209.474 16.6405 209.333 16.9796 209.333 17.3333V21.9999H206.667V17.3333C206.667 16.2724 207.088 15.255 207.838 14.5048C208.588 13.7547 209.606 13.3333 210.667 13.3333Z" stroke="white" stroke-width="1.33333" stroke-linecap="round" stroke-linejoin="round"/>
<path d="M204 14H201.333V22H204V14Z" stroke="white" stroke-width="1.33333" stroke-linecap="round" stroke-linejoin="round"/>
<path d="M202.667 11.9999C203.403 11.9999 204 11.403 204 10.6666C204 9.93021 203.403 9.33325 202.667 9.33325C201.93 9.33325 201.333 9.93021 201.333 10.6666C201.333 11.403 201.93 11.9999 202.667 11.9999Z" stroke="white" stroke-width="1.33333" stroke-linecap="round" stroke-linejoin="round"/>
<defs>
<clipPath id="clip0_1_380">
<rect width="16" height="16" fill="white" transform="translate(8 8)"/>
</clipPath>
<clipPath id="clip1_1_380">
<rect width="16" height="16" fill="white" transform="translate(152 8)"/>
</clipPath>
</defs>
</svg>
