<svg width="80" height="80" viewBox="0 0 80 80" fill="none" xmlns="http://www.w3.org/2000/svg">
<g filter="url(#filter0_dd_1_192)">
<path d="M12 10C12 5.58172 15.5817 2 20 2H60C64.4183 2 68 5.58172 68 10V50C68 54.4183 64.4183 58 60 58H20C15.5817 58 12 54.4183 12 50V10Z" fill="url(#paint0_linear_1_192)" shape-rendering="crispEdges"/>
<path d="M51.6666 30H48.7733C48.2634 29.999 47.7673 30.1649 47.3606 30.4725C46.954 30.7801 46.6593 31.2124 46.5216 31.7034L43.78 41.4567C43.7623 41.5173 43.7255 41.5705 43.675 41.6084C43.6245 41.6462 43.5631 41.6667 43.5 41.6667C43.4369 41.6667 43.3755 41.6462 43.325 41.6084C43.2745 41.5705 43.2377 41.5173 43.22 41.4567L36.78 18.5434C36.7623 18.4828 36.7255 18.4296 36.675 18.3917C36.6245 18.3538 36.5631 18.3334 36.5 18.3334C36.4369 18.3334 36.3755 18.3538 36.325 18.3917C36.2745 18.4296 36.2377 18.4828 36.22 18.5434L33.4783 28.2967C33.3412 28.7857 33.0483 29.2166 32.644 29.5241C32.2397 29.8315 31.7462 29.9986 31.2383 30H28.3333" stroke="white" stroke-width="2.33333" stroke-linecap="round" stroke-linejoin="round"/>
</g>
<defs>
<filter id="filter0_dd_1_192" x="0" y="0" width="80" height="80" filterUnits="userSpaceOnUse" color-interpolation-filters="sRGB">
<feFlood flood-opacity="0" result="BackgroundImageFix"/>
<feColorMatrix in="SourceAlpha" type="matrix" values="0 0 0 0 0 0 0 0 0 0 0 0 0 0 0 0 0 0 127 0" result="hardAlpha"/>
<feMorphology radius="4" operator="erode" in="SourceAlpha" result="effect1_dropShadow_1_192"/>
<feOffset dy="4"/>
<feGaussianBlur stdDeviation="3"/>
<feComposite in2="hardAlpha" operator="out"/>
<feColorMatrix type="matrix" values="0 0 0 0 0 0 0 0 0 0 0 0 0 0 0 0 0 0 0.1 0"/>
<feBlend mode="normal" in2="BackgroundImageFix" result="effect1_dropShadow_1_192"/>
<feColorMatrix in="SourceAlpha" type="matrix" values="0 0 0 0 0 0 0 0 0 0 0 0 0 0 0 0 0 0 127 0" result="hardAlpha"/>
<feMorphology radius="3" operator="erode" in="SourceAlpha" result="effect2_dropShadow_1_192"/>
<feOffset dy="10"/>
<feGaussianBlur stdDeviation="7.5"/>
<feComposite in2="hardAlpha" operator="out"/>
<feColorMatrix type="matrix" values="0 0 0 0 0 0 0 0 0 0 0 0 0 0 0 0 0 0 0.1 0"/>
<feBlend mode="normal" in2="effect1_dropShadow_1_192" result="effect2_dropShadow_1_192"/>
<feBlend mode="normal" in="SourceGraphic" in2="effect2_dropShadow_1_192" result="shape"/>
</filter>
<linearGradient id="paint0_linear_1_192" x1="40" y1="2" x2="40" y2="58" gradientUnits="userSpaceOnUse">
<stop stop-color="#2563EB"/>
<stop offset="1" stop-color="#1D4ED8"/>
</linearGradient>
</defs>
</svg>
